# xmcd CD database file
#
# Track frame offsets:
#	150
#	15501
#	29592
#	47260
#	65698
#	78690
#	97734
#	117714
#	132622
#	154742
#	168372
#	200135
#	218573
#	235791
#	256284
#	274172
#	292352
#	313063
#
# Disc length: 4359 seconds
#
# Revision: 0
# Processed by: cddbd v1.5.2PL0 Copyright (c) Steve Scherf et al.
# Submitted via: CDex 1.51
#
DISCID=0e110512
DTITLE=Bonnie Raitt - I Ain't Blue
DYEAR=1971
DGENRE=Blues
TTITLE0=Something In The Way He Moves Me
TTITLE1=Mighty Tight Woman
TTITLE2=Blue Bird
TTITLE3=Rollin' And Tumblin'
TTITLE4=Close Your Eyes
TTITLE5=Rich Woman Blues
TTITLE6=Let Me Be Your Blender
TTITLE7=Kokomo
TTITLE8=Woodstock
TTITLE9=Big Road Blues
TTITLE10=I Ain't Blue
TTITLE11=Finest Loving Man
TTITLE12=Candy Man
TTITLE13=Walking Blues
TTITLE14=Can I Get A Witness ¿
TTITLE15=Can't Find My Way Home
TTITLE16=Since I Fell For You
TTITLE17=Love In Vain
EXTD=YEAR: 1971
EXTT0=
EXTT1=
EXTT2=
EXTT3=
EXTT4=
EXTT5=
EXTT6=
EXTT7=
EXTT8=
EXTT9=
EXTT10=
EXTT11=
EXTT12=
EXTT13=
EXTT14=
EXTT15=
EXTT16=
EXTT17=
PLAYORDER=
